<?xml version="1.0" standalone="no"?>
<!DOCTYPE svg PUBLIC "-//W3C//DTD SVG 20010904//EN"
 "http://www.w3.org/TR/2001/REC-SVG-20010904/DTD/svg10.dtd">
<svg version="1.0" xmlns="http://www.w3.org/2000/svg"
 width="95.000000pt" height="95.000000pt" viewBox="0 0 95.000000 95.000000"
 preserveAspectRatio="xMidYMid meet">
<metadata>
Created by potrace 1.14, written by Peter Selinger 2001-2017
</metadata>
<g transform="translate(0.000000,95.000000) scale(0.100000,-0.100000)"
fill="#000000" stroke="none">
<path d="M0 475 l0 -475 475 0 475 0 0 475 0 475 -475 0 -475 0 0 -475z m321
301 c-3 -118 -1 -128 14 -122 16 6 92 63 256 194 43 34 85 62 93 62 8 0 20 -9
26 -20 13 -24 22 -16 -194 -178 l-168 -126 184 -181 c101 -99 221 -215 268
-259 l84 -78 -22 -19 c-13 -10 -28 -16 -35 -13 -7 3 -120 110 -251 239 -132
129 -244 235 -249 235 -5 0 -8 -98 -6 -232 l4 -233 -26 -3 c-14 -2 -30 3 -35
10 -5 8 -8 192 -6 436 l3 423 32 -3 31 -3 -3 -129z"/>
</g>
</svg>
